PathFileType	4	(X/Y/Z)	Patient4_TMGait_0pt5_02_right_36.trc.trc
DataRate	CameraRate	NumFrames	NumMarkers	Units	OrigDataRate	OrigDataStartFrame	OrigNumFrames
77.777777777778	77.777777777778	4	33	mm	77.777777777778	89	       141
Frame#	Time	Sacral			L.Shoulder			Chest			R.Shoulder			Neck			R.ASIS			L.ASIS			R.Thigh.Superior			R.Thigh.Lateral			R.Thigh.Inferior			R.Patella			L.Thigh.Superior			L.Thigh.Lateral			L.Thigh.Inferior			L.Patella			L.Shank.Superior			L.Shank.Lateral			L.Shank.Inferior			R.Shank.Superior			R.Shank.Lateral			R.Shank.Inferior			R.Heel			R.Midfoot.Superior			R.Midfoot.Lateral			R.Toe			L.Heel			L.Midfoot.Lateral			L.Midfoot.Superior			L.Toe			L.Elbow			L.Wrist			R.Elbow			R.Wrist			
		X1	Y1	Z1	X2	Y2	Z2	X3	Y3	Z3	X4	Y4	Z4	X5	Y5	Z5	X6	Y6	Z6	X7	Y7	Z7	X8	Y8	Z8	X9	Y9	Z9	X10	Y10	Z10	X11	Y11	Z11	X12	Y12	Z12	X13	Y13	Z13	X14	Y14	Z14	X15	Y15	Z15	X16	Y16	Z16	X17	Y17	Z17	X18	Y18	Z18	X19	Y19	Z19	X20	Y20	Z20	X21	Y21	Z21	X22	Y22	Z22	X23	Y23	Z23	X24	Y24	Z24	X25	Y25	Z25	X26	Y26	Z26	X27	Y27	Z27	X28	Y28	Z28	X29	Y29	Z29	X30	Y30	Z30	X31	Y31	Z31	X32	Y32	Z32	X33	Y33	Z33	

89	48.151428571429	759.583109379970	1006.283677865184	464.642846811313	918.648681026120	1438.661309272306	288.495480365106	1032.219422261433	1364.232215623693	440.007438139428	960.197411518316	1433.611652421388	621.426356396444	929.073608447557	1495.819757294795	440.525390640768	989.095579006523	939.445715636711	572.394529403142	967.150149020847	962.583693979484	298.695946059445	1024.999658877753	735.337569045073	552.004196801701	945.692639833842	629.464718459083	620.079269311747	1023.994486806733	567.899732559492	545.631064688094	1015.360086881760	460.217272358623	568.104967161564	1031.057571737980	760.040942882339	333.991489530496	954.988649140641	636.332104775892	275.517334276774	1045.581269166190	566.124457358774	340.592729426960	1052.202666780864	494.402070776357	350.661117754321	1025.546974403782	420.774690429153	343.411778006174	939.158821958325	304.937300912281	291.363899107354	989.907027353823	194.758587248314	363.356817017314	940.035959081303	392.166185058347	574.668163588986	821.150782526186	346.147957596119	633.780640981262	812.288714962967	237.015446693258	583.818721049082	612.613981224563	157.791082919475	557.579352069633	784.895126375323	115.117802658722	590.625469614262	678.120011306195	101.674167430876	627.338977825672	862.051893325668	32.680390657154	610.787791150146	863.057932795371	38.338421466129	403.373868224462	937.607745203730	35.872692750866	323.105455846857	1020.106650183061	96.771284422694	350.913427157512	1149.094119670049	45.204321422481	323.075121095756	832.903865801412	1095.641860555962	169.121557175800	883.852045114676	838.630205552943	171.553534262430	1041.310862505604	1094.994133311295	725.898760576320	1283.211148009466	1072.684848235871	653.332238715466	
90	48.164285714286	759.171825918777	1006.048137715501	461.795496839436	919.383451154241	1438.666262088117	285.843797354087	1032.012426070611	1364.208368754360	438.069069766336	958.941716547512	1433.596239948583	619.085402009816	928.874896971079	1495.856732123395	437.904817086458	988.530200648490	939.649099203056	570.094532161976	967.357817184971	962.408743692026	296.671062463285	1029.617118420162	737.757580146585	549.926404369541	953.596675432607	630.338251126905	618.705183174408	1033.473558483059	570.127463106719	544.165129680816	1026.297219283833	461.364292602869	567.225336053271	1030.181180211567	759.097731576758	331.887973925855	953.237468464507	635.951011212596	273.801018534116	1043.101776989097	565.236322443972	339.122014945981	1049.102542403504	493.478066284453	349.431923283814	1022.001625184130	419.893313880266	342.377690485703	934.928040677746	304.508380451900	290.556392665200	984.503959454978	194.235661016588	363.084981346461	949.416696779466	393.885611047447	573.986834871244	829.050172336392	351.565885118397	633.044182092714	817.441688962978	242.415811344076	583.938955606578	616.270435148151	172.349531531676	557.511704836145	785.650502716028	119.270176928728	591.221783505175	678.006834234521	112.155281858757	627.274047441309	856.575811400364	31.475138315614	611.117695714797	856.600083020316	38.322481119916	403.307721512705	931.151013903556	35.823539049478	323.037469211341	1013.769100664396	96.592361533201	350.921947367037	1142.742947987046	44.715170428953	323.064506535196	840.299556601766	1094.602995501440	163.679888139261	902.817851745893	840.007250346950	166.293237321184	1033.112994666795	1092.700776630827	723.233232234709	1274.717064514248	1055.386475585259	653.640714268343	
91	48.177142857143	758.675450511916	1005.702959439246	459.129769336346	919.981396327307	1438.547077649564	283.311842184895	1031.711557800334	1364.072003098085	436.221347601744	957.639622059152	1433.447781750135	616.861980036525	928.632146087138	1495.790587112380	435.398075687919	987.881648257154	939.780477902843	567.860624891489	967.457944934350	962.124688996068	294.803531897113	1034.178055703242	740.405131499121	547.831739219601	961.569888211179	631.427178195850	617.306783636126	1042.972238366215	572.731214522056	542.621914139805	1037.422167498473	462.927850551359	566.092616798424	1029.320201383501	758.164144993808	329.807411127540	951.462302342381	635.524960494924	272.167928883566	1040.702770398459	564.334355364638	337.622421382275	1046.122919506596	492.539604095001	348.195121239914	1018.551710279831	418.983899219901	341.361861489695	930.746190061391	304.084475008621	289.779605323417	979.126609483374	193.699459914426	362.809002013691	959.125311100058	395.900901503919	573.035154993967	837.500813315390	357.111381007350	632.148289025534	823.179683595082	248.079099615735	583.785982885775	621.039451056859	187.060156297480	557.082893631515	787.121893574984	124.043539837310	591.677971492963	678.864669810604	123.151562773661	626.980061282248	851.687327241338	30.338257435628	611.519283206275	850.163145001056	38.315032289492	403.236021344150	924.712468878999	35.787445084867	322.961201602331	1007.443081410593	96.430896425769	350.913648403680	1136.398447704689	44.255699383828	323.032098134930	848.117873273530	1093.544731090079	158.279304374746	922.181280723391	841.941401937484	161.089555576340	1024.562449982650	1090.362736052168	720.610199277529	1264.875317797383	1037.491296273000	654.268588158455	
92	48.190000000000	758.118440631200	1005.294231725615	456.654136704790	920.452785939597	1438.338248806278	280.903012997145	1031.333070600847	1363.863975169555	434.464607754366	956.310262506686	1433.216549867321	614.756270765599	928.364914540703	1495.658715316509	433.007646794440	987.172088691107	939.888332832219	565.721451952225	967.461359354057	961.783447336488	293.074313205561	1038.588476672973	743.281728033548	545.729992989451	969.473053800916	632.765272339284	615.877771900225	1052.343839800836	575.731725063632	541.011466517405	1048.601075192099	464.934591449098	564.746601613212	1028.458896394970	757.242549373357	327.742497988913	949.614305492853	635.067531556864	270.637766396132	1038.333458664699	563.417043892930	336.110561966841	1043.209163641687	491.595515468928	346.976169557996	1015.146475261565	418.065152141133	340.383739236209	926.575628012215	303.678790824328	289.046638734310	973.760468978173	193.165117232320	362.534202021275	969.035671810733	398.227819948780	571.846725701382	846.365001745535	362.716460368678	631.083750859086	829.456670595086	253.907329845657	583.348498757749	626.823340461175	201.480644104077	556.275909900774	789.401956918363	129.324606050928	591.944708200642	680.768666475036	134.318480474280	626.433480987438	847.702029552043	29.434245708193	611.942717249549	843.743089667345	38.318932673465	403.160206720444	918.288961926609	35.763981385315	322.879820702995	1001.123849968541	96.288460452151	350.888405817344	1130.056400778114	43.830683498322	322.979195646266	856.348392929781	1092.516189922812	152.987487385539	941.840421681468	844.473581947969	156.004027400345	1015.706395471245	1088.053500935048	718.049492168109	1253.571752843532	1019.124127792738	655.241752358048	
